<?xml version="1.0" encoding="UTF-8" ?>
<!DOCTYPE svg PUBLIC "-//W3C//DTD SVG 1.1//EN" "http://www.w3.org/Graphics/SVG/1.1/DTD/svg11.dtd">
<svg width="512pt" height="512pt" viewBox="0 0 512 512" version="1.1" xmlns="http://www.w3.org/2000/svg">
<g id="#000000ff">
<path fill="#000000" opacity="1.00" d=" M 148.42 0.00 L 333.56 0.00 C 359.63 0.56 385.66 7.44 408.06 20.91 C 438.37 38.64 462.00 67.44 473.50 100.61 C 484.76 132.40 484.54 167.91 473.54 199.75 C 487.32 215.32 498.22 233.55 504.53 253.41 C 509.32 267.60 511.48 282.56 512.00 297.50 L 512.00 302.45 C 511.39 321.82 507.67 341.18 499.94 359.00 C 484.33 396.38 452.92 426.85 414.99 441.13 C 405.08 445.14 394.60 447.42 384.13 449.40 C 376.98 451.78 369.39 450.85 362.00 451.00 C 362.01 465.35 361.98 479.70 362.02 494.05 C 362.01 497.70 361.78 501.57 359.76 504.73 C 357.27 509.01 352.52 511.56 347.67 512.00 L 346.51 512.00 C 342.98 511.65 339.67 510.23 336.77 508.23 C 309.06 489.57 281.25 471.05 253.55 452.38 C 252.24 451.44 250.69 450.88 249.07 450.99 C 225.04 450.91 201.00 451.20 176.97 450.85 C 141.58 450.26 106.60 436.43 80.41 412.62 C 50.42 386.07 31.88 347.04 30.33 307.01 C 29.18 287.76 32.32 268.42 38.47 250.19 C 28.22 238.40 19.34 225.31 13.11 210.95 C 4.72 192.64 0.66 172.56 0.00 152.49 L 0.00 148.46 C 0.46 141.68 0.55 134.85 1.76 128.14 C 7.25 88.96 29.36 52.52 61.32 29.27 C 86.29 10.58 117.30 0.57 148.42 0.00 M 119.91 33.95 C 86.44 42.40 57.37 66.30 42.32 97.32 C 29.40 123.29 26.65 154.06 34.44 181.97 C 42.24 210.58 61.24 235.91 86.40 251.58 C 104.72 263.23 126.32 269.54 148.01 269.90 C 154.66 270.30 161.37 269.53 167.99 270.36 C 174.77 271.60 180.04 278.06 179.95 284.94 C 180.08 295.67 179.95 306.41 180.00 317.14 C 201.15 303.21 222.29 289.28 243.41 275.32 C 247.15 272.78 251.16 270.04 255.87 270.08 C 282.28 269.80 308.70 270.25 335.10 269.85 C 371.47 269.21 406.88 250.66 428.30 221.30 C 449.83 192.85 457.21 154.41 448.06 119.95 C 439.50 85.99 415.02 56.52 383.32 41.67 C 366.80 33.64 348.38 29.97 330.07 30.00 C 272.36 29.99 214.65 30.01 156.95 30.00 C 144.51 29.89 131.95 30.63 119.91 33.95 M 416.62 273.73 C 392.21 290.56 362.69 299.83 333.03 299.96 C 309.32 300.07 285.61 299.95 261.90 300.02 C 259.81 299.96 258.24 301.58 256.56 302.56 C 229.28 320.63 201.93 338.58 174.64 356.62 C 171.22 358.95 167.06 360.50 162.88 359.76 C 155.73 358.91 150.03 352.24 150.07 345.07 C 149.90 330.05 150.05 315.03 150.00 300.00 C 145.32 299.95 140.65 300.08 135.97 299.97 C 132.16 299.90 128.63 298.29 124.88 297.82 C 102.71 294.21 81.55 285.20 63.21 272.29 C 62.16 278.83 60.56 285.32 60.45 291.98 C 58.02 323.70 69.07 356.10 90.11 379.92 C 106.23 398.43 128.15 411.87 152.04 417.57 C 165.71 421.11 179.93 421.11 193.95 421.00 C 214.31 421.02 234.67 420.96 255.03 421.02 C 258.81 420.95 262.46 422.20 265.56 424.34 C 287.70 439.19 309.85 454.02 331.99 468.87 C 332.00 459.23 332.02 449.59 331.98 439.94 C 332.01 436.68 331.86 433.28 333.20 430.23 C 335.42 424.78 341.06 421.00 346.95 421.05 C 358.36 420.89 369.89 421.37 381.18 419.32 C 419.06 413.50 452.94 387.86 469.54 353.42 C 479.59 333.15 483.55 310.00 481.31 287.52 C 479.24 266.67 471.44 246.48 459.13 229.54 C 448.08 246.90 433.62 262.11 416.62 273.73 Z" />
<path fill="#000000" opacity="1.00" d=" M 143.56 120.79 C 151.75 118.97 160.65 120.80 167.45 125.72 C 174.33 130.59 178.91 138.54 179.72 146.92 C 180.64 155.02 177.94 163.41 172.61 169.57 C 165.93 177.41 154.99 181.31 144.84 179.45 C 131.63 177.36 120.89 165.47 120.19 152.11 C 118.86 137.76 129.44 123.63 143.56 120.79 Z" />
<path fill="#000000" opacity="1.00" d=" M 234.53 120.80 C 242.70 118.97 251.58 120.78 258.38 125.67 C 265.30 130.54 269.90 138.52 270.73 146.93 C 271.63 155.03 268.95 163.41 263.62 169.56 C 256.93 177.41 246.00 181.31 235.85 179.45 C 222.63 177.37 211.88 165.45 211.18 152.08 C 209.87 137.75 220.43 123.65 234.53 120.80 Z" />
<path fill="#000000" opacity="1.00" d=" M 325.58 120.79 C 333.51 119.03 342.10 120.69 348.80 125.27 C 356.03 130.10 360.89 138.29 361.73 146.94 C 362.57 154.59 360.23 162.51 355.46 168.53 C 350.35 175.09 342.35 179.28 334.06 179.82 C 326.27 180.41 318.33 177.72 312.44 172.62 C 304.61 165.95 300.71 155.05 302.54 144.93 C 304.41 133.18 313.94 123.22 325.58 120.79 Z" />
</g>
</svg>
