<?xml version="1.0" encoding="UTF-8" ?>
<!DOCTYPE svg PUBLIC "-//W3C//DTD SVG 1.1//EN" "http://www.w3.org/Graphics/SVG/1.1/DTD/svg11.dtd">
<svg width="512pt" height="512pt" viewBox="0 0 512 512" version="1.1" xmlns="http://www.w3.org/2000/svg">
<g id="#000000ff">
<path fill="#000000" opacity="1.00" d=" M 166.63 15.69 C 222.99 -3.51 285.61 -3.87 342.22 14.59 C 372.75 24.64 401.47 40.36 426.01 61.17 C 448.57 80.20 467.61 103.40 481.76 129.30 C 500.94 164.13 510.86 203.68 512.00 243.34 L 512.00 256.61 C 510.85 295.55 501.27 334.40 482.72 368.76 C 467.75 396.70 447.13 421.58 422.53 441.56 C 392.04 466.43 355.51 483.60 317.15 492.14 C 273.57 501.77 227.64 501.08 184.48 489.58 C 183.29 489.21 182.04 489.41 180.95 489.98 C 168.28 495.62 155.57 501.20 142.89 506.82 C 138.49 508.75 134.11 510.78 129.46 512.00 L 111.72 512.00 C 99.37 508.99 88.68 499.74 84.29 487.76 C 81.04 479.56 81.82 470.58 81.37 461.96 C 80.91 452.60 81.14 443.16 80.28 433.85 C 68.02 422.42 56.50 410.12 46.67 396.51 C 23.35 364.68 8.32 326.97 2.73 287.94 C 1.21 277.89 0.55 267.74 0.00 257.60 L 0.00 242.42 C 0.59 229.91 1.63 217.41 3.85 205.07 C 11.99 157.35 34.63 112.13 68.50 77.49 C 95.65 49.41 129.72 28.32 166.63 15.69 M 201.97 47.09 C 173.40 53.71 146.04 65.91 122.46 83.41 C 99.43 100.33 80.09 122.24 66.15 147.19 C 38.13 197.23 32.81 258.77 49.37 313.44 C 58.63 343.77 75.15 371.88 97.33 394.56 C 103.07 400.83 110.35 405.78 114.78 413.18 C 118.29 418.84 120.21 425.43 120.46 432.08 C 120.92 445.52 121.27 458.97 121.72 472.41 C 134.62 466.77 147.49 461.05 160.37 455.36 C 165.14 453.32 169.81 450.89 174.95 449.93 C 181.22 448.60 187.76 449.01 193.91 450.73 C 219.90 457.73 247.08 460.13 273.90 458.14 C 319.07 455.07 363.60 438.51 398.51 409.43 C 429.05 384.30 451.73 349.89 463.01 312.00 C 477.84 261.95 474.36 206.34 451.95 159.05 C 439.33 132.42 420.77 108.63 397.97 89.97 C 371.65 68.20 339.83 53.40 306.48 46.29 C 272.14 39.03 236.19 39.26 201.97 47.09 Z" />
<path fill="#000000" opacity="1.00" d=" M 385.38 180.55 C 391.74 178.33 399.11 183.28 399.89 189.86 C 400.39 192.93 399.10 195.89 397.47 198.40 C 374.62 234.59 351.82 270.80 328.97 306.99 C 324.11 314.92 316.08 320.80 307.03 322.95 C 296.80 325.50 285.52 323.20 277.14 316.79 C 258.72 302.57 240.42 288.18 221.98 273.99 C 216.92 270.06 209.30 270.29 204.41 274.38 C 180.70 292.67 156.97 310.93 133.27 329.23 C 130.54 331.35 127.67 333.82 124.02 333.94 C 118.32 334.38 112.80 329.78 112.11 324.12 C 111.65 321.30 112.69 318.52 114.20 316.18 C 137.03 279.99 159.86 243.81 182.69 207.61 C 190.14 194.58 206.30 187.43 220.95 190.82 C 226.46 191.94 231.58 194.56 236.00 198.00 C 254.02 211.64 272.00 225.35 290.03 238.99 C 295.10 242.92 302.68 242.69 307.62 238.65 C 330.98 221.01 354.28 203.29 377.62 185.61 C 380.10 183.79 382.43 181.60 385.38 180.55 Z" />
</g>
</svg>
