<?xml version="1.0" encoding="UTF-8" ?>
<!DOCTYPE svg PUBLIC "-//W3C//DTD SVG 1.1//EN" "http://www.w3.org/Graphics/SVG/1.1/DTD/svg11.dtd">
<svg width="512pt" height="512pt" viewBox="0 0 512 512" version="1.1" xmlns="http://www.w3.org/2000/svg">
<g id="#000000ff">
<path fill="#000000" opacity="1.00" d=" M 250.38 0.00 L 254.53 0.00 C 264.11 0.39 273.71 1.34 283.02 3.73 C 306.37 9.33 327.48 22.75 343.53 40.48 C 359.22 57.23 369.99 78.59 373.76 101.26 C 377.72 125.65 375.35 151.41 365.01 174.00 C 357.82 190.01 346.84 204.15 333.78 215.79 C 316.88 231.06 295.58 241.52 273.01 244.92 C 245.73 249.20 216.76 245.14 192.60 231.40 C 174.39 221.00 158.76 206.08 147.48 188.41 C 134.09 167.64 128.14 142.54 129.24 117.96 C 129.99 94.58 137.57 71.38 151.38 52.45 C 161.54 38.42 174.38 26.26 189.20 17.25 C 207.46 5.87 228.98 0.47 250.38 0.00 M 240.54 30.73 C 215.42 33.14 192.64 47.65 177.53 67.50 C 166.29 81.83 159.97 99.78 159.25 117.94 C 158.04 138.32 163.20 159.27 175.17 175.95 C 188.49 194.63 208.14 209.42 230.81 214.28 C 254.45 219.32 280.39 216.30 300.98 203.14 C 317.30 192.67 330.94 177.59 338.61 159.68 C 346.12 141.72 347.34 121.43 343.46 102.45 C 338.53 78.32 322.33 57.55 302.02 44.15 C 284.07 32.27 261.73 28.31 240.54 30.73 Z" />
<path fill="#000000" opacity="1.00" d=" M 96.60 265.64 C 113.30 253.26 134.21 247.15 154.91 247.40 C 158.94 247.46 162.74 248.99 166.25 250.84 C 179.20 257.94 190.82 267.29 204.04 273.92 C 216.77 279.48 230.02 284.35 243.92 285.80 C 262.17 288.00 280.79 284.78 297.70 277.78 C 311.81 273.15 323.55 263.81 336.04 256.12 C 342.49 252.20 349.11 247.35 356.99 247.38 C 372.30 247.41 387.69 250.64 401.39 257.58 C 420.27 266.75 434.66 283.27 444.27 301.67 C 459.59 329.98 465.31 362.32 468.11 394.07 C 469.14 414.56 470.99 435.75 464.39 455.57 C 458.51 474.05 445.43 489.99 428.64 499.65 C 414.70 507.87 398.49 511.35 382.44 512.00 L 129.49 512.00 C 117.36 511.52 105.16 509.71 93.85 505.14 C 75.90 498.12 60.44 484.60 51.69 467.36 C 44.61 453.75 42.00 438.24 42.04 423.02 C 42.02 400.72 43.75 378.37 48.19 356.49 C 51.60 339.25 56.41 322.10 64.50 306.42 C 71.98 290.70 82.55 276.11 96.60 265.64 M 142.22 278.30 C 127.89 280.61 113.91 287.55 104.79 299.05 C 89.94 316.45 82.25 338.75 77.91 360.92 C 73.89 379.32 72.52 398.15 72.23 416.94 C 71.12 433.29 73.78 451.16 85.24 463.67 C 96.55 476.67 114.23 481.97 131.02 481.96 C 212.66 482.06 294.29 481.97 375.93 482.00 C 386.48 482.09 397.25 481.06 407.07 476.95 C 420.85 471.40 432.07 459.56 436.22 445.21 C 440.19 432.85 439.00 419.74 438.57 406.99 C 438.25 387.74 435.31 368.61 430.80 349.92 C 425.52 329.07 416.56 308.38 400.92 293.18 C 389.79 283.15 374.85 277.91 359.98 277.43 C 358.47 277.26 357.27 278.37 356.01 279.01 C 345.04 285.65 334.68 293.33 323.34 299.35 C 303.65 309.14 282.06 315.65 260.00 316.37 C 236.15 317.30 212.50 311.04 191.04 300.94 C 177.52 294.48 165.74 285.03 152.73 277.70 C 149.28 277.00 145.69 277.98 142.22 278.30 Z" />
</g>
</svg>
