<?xml version="1.0" encoding="UTF-8" ?>
<!DOCTYPE svg PUBLIC "-//W3C//DTD SVG 1.1//EN" "http://www.w3.org/Graphics/SVG/1.1/DTD/svg11.dtd">
<svg width="512pt" height="512pt" viewBox="0 0 512 512" version="1.1" xmlns="http://www.w3.org/2000/svg">
<g id="#000000ff">
<path fill="#000000" opacity="1.00" d=" M 151.50 37.71 C 175.68 34.29 200.97 38.70 222.32 50.64 C 244.74 62.98 262.72 83.27 271.94 107.17 C 281.25 130.98 281.67 158.11 273.12 182.20 C 264.41 207.08 246.29 228.41 223.36 241.32 C 200.15 254.62 172.13 259.01 145.91 253.92 C 120.10 249.00 96.21 234.66 79.80 214.14 C 63.72 194.27 55.04 168.58 55.92 143.02 C 56.59 115.95 68.07 89.41 87.12 70.20 C 104.21 52.64 127.26 41.12 151.50 37.71 M 158.46 73.69 C 133.41 76.48 110.35 92.91 99.83 115.86 C 91.78 132.92 90.92 153.18 97.42 170.88 C 102.41 184.67 111.73 196.81 123.64 205.33 C 136.43 214.57 152.20 219.55 167.97 219.41 C 184.35 219.38 200.67 213.83 213.59 203.76 C 226.69 193.69 236.28 179.08 240.06 162.98 C 243.65 148.02 242.28 131.93 236.17 117.81 C 229.83 103.02 218.42 90.51 204.37 82.70 C 190.55 74.89 174.20 71.79 158.46 73.69 Z" />
<path fill="#000000" opacity="1.00" d=" M 312.41 73.59 C 325.87 72.25 339.59 75.07 352.14 79.93 C 374.62 88.95 392.94 107.39 402.33 129.65 C 408.80 144.82 411.17 161.79 408.50 178.10 C 404.80 201.35 391.83 222.95 373.10 237.21 C 356.62 249.92 335.63 256.48 314.87 255.91 C 306.51 255.36 299.03 248.47 298.06 240.10 C 296.84 232.19 301.67 224.02 309.01 220.98 C 313.40 218.90 318.35 219.66 323.02 219.05 C 337.10 217.57 350.46 210.38 359.46 199.44 C 370.24 186.60 374.98 168.64 370.84 152.27 C 366.06 131.73 348.68 114.76 327.90 110.85 C 321.24 109.03 313.85 110.97 307.64 107.49 C 301.32 104.22 297.26 97.04 297.96 89.92 C 298.48 82.06 304.74 75.16 312.41 73.59 Z" />
<path fill="#000000" opacity="1.00" d=" M 335.32 290.02 C 336.42 281.04 344.99 273.99 353.97 274.29 C 383.79 274.50 413.83 274.53 443.28 279.80 C 462.71 283.39 482.86 290.43 496.04 305.91 C 506.85 318.23 511.07 334.77 512.00 350.80 L 512.00 361.47 C 511.23 376.21 508.10 391.30 499.72 403.71 C 491.18 416.77 477.50 425.75 462.84 430.58 C 442.63 437.28 421.11 438.33 399.99 438.78 C 394.53 438.64 388.79 439.64 383.63 437.36 C 376.48 434.47 371.64 426.74 372.43 419.03 C 373.02 410.01 381.20 402.46 390.18 402.32 C 406.79 402.10 423.54 401.96 439.91 398.83 C 449.04 396.88 458.67 394.25 465.49 387.49 C 472.38 380.52 474.17 370.27 474.65 360.87 C 474.90 351.68 474.67 341.97 470.41 333.61 C 466.63 326.30 458.95 322.23 451.48 319.62 C 436.94 314.66 421.49 313.40 406.27 312.23 C 388.85 311.10 371.38 310.93 353.93 310.85 C 343.10 311.31 333.43 300.81 335.32 290.02 Z" />
<path fill="#000000" opacity="1.00" d=" M 64.58 299.20 C 90.42 294.19 116.82 293.42 143.05 292.77 C 160.37 292.57 177.69 292.52 195.00 292.84 C 221.98 293.54 249.18 294.49 275.64 300.25 C 292.31 304.10 309.67 310.60 320.57 324.50 C 331.96 339.01 334.35 358.16 334.99 376.03 C 335.32 394.26 335.06 413.16 328.19 430.34 C 323.40 442.46 313.91 452.41 302.35 458.33 C 285.63 466.95 266.75 469.99 248.25 472.13 C 219.95 475.16 191.44 475.34 163.01 475.39 C 131.08 475.07 98.92 474.88 67.38 469.33 C 48.50 465.73 28.33 459.86 15.47 444.61 C 3.04 429.80 0.83 409.66 0.00 391.08 L 0.00 377.13 C 0.79 358.93 2.86 339.35 14.52 324.54 C 26.61 309.24 46.17 302.91 64.58 299.20 M 140.36 329.42 C 117.50 330.03 94.50 330.75 71.97 335.04 C 63.32 336.87 54.37 338.92 46.98 344.04 C 42.33 347.23 40.56 352.97 39.36 358.20 C 37.07 369.46 37.08 381.03 37.41 392.46 C 37.90 401.08 38.41 410.02 42.06 417.98 C 44.75 424.03 51.28 426.82 57.10 429.01 C 72.51 434.22 88.84 435.75 104.96 437.06 C 135.89 439.08 166.92 439.08 197.89 438.47 C 219.41 437.92 241.05 437.06 262.26 433.13 C 270.93 431.31 279.90 429.36 287.43 424.47 C 292.10 421.59 294.23 416.21 295.45 411.11 C 297.73 401.26 297.90 391.08 297.85 381.02 C 297.69 372.62 297.30 364.13 295.21 355.95 C 294.01 351.42 292.08 346.69 288.05 343.96 C 280.85 338.98 272.12 336.99 263.70 335.15 C 240.45 330.64 216.68 330.00 193.07 329.38 C 175.50 329.11 157.93 329.09 140.36 329.42 Z" />
</g>
</svg>
