<?xml version="1.0" encoding="UTF-8" ?>
<!DOCTYPE svg PUBLIC "-//W3C//DTD SVG 1.1//EN" "http://www.w3.org/Graphics/SVG/1.1/DTD/svg11.dtd">
<svg width="512pt" height="512pt" viewBox="0 0 512 512" version="1.1" xmlns="http://www.w3.org/2000/svg">
<g id="#000000ff">
<path fill="#000000" opacity="1.00" d=" M 14.74 92.73 C 24.78 82.03 39.37 75.86 54.04 76.02 C 148.03 75.97 242.01 76.01 335.99 76.00 C 344.45 76.07 353.08 75.50 361.33 77.81 C 378.20 82.10 392.42 95.26 398.14 111.68 C 403.09 125.41 400.61 140.23 401.25 154.48 C 425.48 137.98 449.62 121.36 473.83 104.85 C 477.52 102.33 481.15 99.45 485.58 98.39 C 491.99 96.73 499.09 98.49 504.10 102.80 C 508.61 106.54 511.14 112.14 512.00 117.84 L 512.00 383.03 C 511.26 388.56 508.93 393.99 504.73 397.76 C 499.79 402.35 492.57 404.43 485.99 402.84 C 481.62 401.93 478.02 399.19 474.43 396.72 C 450.03 380.04 425.67 363.30 401.25 346.66 C 401.11 359.75 401.45 372.86 401.07 385.95 C 399.99 406.75 385.44 425.99 365.77 432.81 C 357.24 436.06 347.99 436.15 338.99 436.00 C 243.99 435.99 148.99 436.03 53.99 435.98 C 39.36 436.10 24.80 429.97 14.77 419.29 C 5.81 410.00 0.59 397.38 0.00 384.51 L 0.00 127.52 C 0.58 114.66 5.77 102.02 14.74 92.73 M 32.03 128.99 C 31.98 213.67 31.98 298.36 32.03 383.04 C 32.00 394.54 42.59 404.50 54.04 403.99 C 152.02 403.99 250.00 404.03 347.98 403.97 C 359.19 404.09 369.23 394.19 369.21 382.98 C 369.29 360.65 369.18 338.31 369.26 315.98 C 369.19 307.27 377.32 299.71 385.99 300.34 C 391.69 300.44 396.06 304.46 400.57 307.40 C 427.05 325.49 453.51 343.62 479.99 361.72 C 480.02 287.60 479.97 213.49 480.02 139.37 C 451.82 158.71 423.58 177.99 395.36 197.30 C 393.08 198.93 390.50 200.19 387.71 200.61 C 378.85 202.27 369.68 195.01 369.30 186.00 C 369.08 166.68 369.38 147.35 369.15 128.03 C 368.68 117.20 358.84 107.92 348.01 108.03 C 250.01 107.97 152.00 108.01 54.00 108.01 C 42.54 107.50 31.98 117.49 32.03 128.99 Z" />
</g>
</svg>
